<?xml version="1.0" encoding="UTF-8" standalone="no"?>
<!DOCTYPE svg PUBLIC "-//W3C//DTD SVG 20010904//EN"
              "http://www.w3.org/TR/2001/REC-SVG-20010904/DTD/svg10.dtd">

<svg xmlns="http://www.w3.org/2000/svg" width="200" height="200" viewBox="300 300 420 420">
  <path id="AllScreen Logo"
        fill="#e7000b" stroke="none" stroke-width="1"
        d="M 306.53,698.53
           C 306.53,698.53 475.52,326.52 475.52,326.52
             475.52,326.52 544.49,326.53 544.49,326.53
             544.49,326.53 715.52,698.52 715.52,698.52
             715.52,698.52 637.52,698.51 637.52,698.51
             637.52,698.51 509.99,416.44 509.99,416.44
             509.99,416.44 452.48,544.50 452.48,544.50
             452.48,544.50 527.50,544.50 527.50,544.50
             527.50,544.50 554.51,607.52 554.51,607.52
             554.51,607.52 427.50,607.52 427.50,607.52
             427.50,607.52 386.50,698.49 386.50,698.49
             386.50,698.49 306.53,698.53 306.53,698.53 Z" />
</svg>
